<?xml version="1.0" encoding="UTF-8"?>
<svg id="Layer_1" data-name="Layer 1" xmlns="http://www.w3.org/2000/svg" xmlns:xlink="http://www.w3.org/1999/xlink" viewBox="0 0 363.59 223.48">
  <defs>
    <style>
      .cls-1 {
        fill: none;
      }

      .cls-2 {
        fill: url(#linear-gradient);
      }

      .cls-3 {
        clip-path: url(#clippath);
      }

      .cls-4 {
        clip-path: url(#clippath-1);
      }

      .cls-5 {
        clip-path: url(#clippath-4);
      }

      .cls-6 {
        clip-path: url(#clippath-3);
      }

      .cls-7 {
        clip-path: url(#clippath-2);
      }

      .cls-8 {
        clip-path: url(#clippath-7);
      }

      .cls-9 {
        clip-path: url(#clippath-8);
      }

      .cls-10 {
        clip-path: url(#clippath-6);
      }

      .cls-11 {
        clip-path: url(#clippath-5);
      }

      .cls-12 {
        clip-path: url(#clippath-9);
      }

      .cls-13 {
        clip-path: url(#clippath-20);
      }

      .cls-14 {
        clip-path: url(#clippath-21);
      }

      .cls-15 {
        clip-path: url(#clippath-24);
      }

      .cls-16 {
        clip-path: url(#clippath-23);
      }

      .cls-17 {
        clip-path: url(#clippath-22);
      }

      .cls-18 {
        clip-path: url(#clippath-25);
      }

      .cls-19 {
        clip-path: url(#clippath-27);
      }

      .cls-20 {
        clip-path: url(#clippath-28);
      }

      .cls-21 {
        clip-path: url(#clippath-26);
      }

      .cls-22 {
        clip-path: url(#clippath-29);
      }

      .cls-23 {
        clip-path: url(#clippath-34);
      }

      .cls-24 {
        clip-path: url(#clippath-35);
      }

      .cls-25 {
        clip-path: url(#clippath-33);
      }

      .cls-26 {
        clip-path: url(#clippath-32);
      }

      .cls-27 {
        clip-path: url(#clippath-30);
      }

      .cls-28 {
        clip-path: url(#clippath-31);
      }

      .cls-29 {
        clip-path: url(#clippath-14);
      }

      .cls-30 {
        clip-path: url(#clippath-13);
      }

      .cls-31 {
        clip-path: url(#clippath-12);
      }

      .cls-32 {
        clip-path: url(#clippath-10);
      }

      .cls-33 {
        clip-path: url(#clippath-15);
      }

      .cls-34 {
        clip-path: url(#clippath-17);
      }

      .cls-35 {
        clip-path: url(#clippath-16);
      }

      .cls-36 {
        clip-path: url(#clippath-19);
      }

      .cls-37 {
        clip-path: url(#clippath-11);
      }

      .cls-38 {
        clip-path: url(#clippath-18);
      }

      .cls-39 {
        fill: url(#linear-gradient-8);
      }

      .cls-40 {
        fill: url(#linear-gradient-9);
      }

      .cls-41 {
        fill: url(#linear-gradient-3);
      }

      .cls-42 {
        fill: url(#linear-gradient-4);
      }

      .cls-43 {
        fill: url(#linear-gradient-2);
      }

      .cls-44 {
        fill: url(#linear-gradient-6);
      }

      .cls-45 {
        fill: url(#linear-gradient-7);
      }

      .cls-46 {
        fill: url(#linear-gradient-5);
      }

      .cls-47 {
        fill: url(#linear-gradient-14);
      }

      .cls-48 {
        fill: url(#linear-gradient-18);
      }

      .cls-49 {
        fill: url(#linear-gradient-22);
      }

      .cls-50 {
        fill: url(#linear-gradient-20);
      }

      .cls-51 {
        fill: url(#linear-gradient-21);
      }

      .cls-52 {
        fill: url(#linear-gradient-23);
      }

      .cls-53 {
        fill: url(#linear-gradient-15);
      }

      .cls-54 {
        fill: url(#linear-gradient-19);
      }

      .cls-55 {
        fill: url(#linear-gradient-16);
      }

      .cls-56 {
        fill: url(#linear-gradient-17);
      }

      .cls-57 {
        fill: url(#linear-gradient-13);
      }

      .cls-58 {
        fill: url(#linear-gradient-12);
      }

      .cls-59 {
        fill: url(#linear-gradient-10);
      }

      .cls-60 {
        fill: url(#linear-gradient-11);
      }

      .cls-61 {
        fill: url(#linear-gradient-27);
      }

      .cls-62 {
        fill: url(#linear-gradient-24);
      }

      .cls-63 {
        fill: url(#linear-gradient-26);
      }

      .cls-64 {
        fill: url(#linear-gradient-35);
      }

      .cls-65 {
        fill: url(#linear-gradient-34);
      }

      .cls-66 {
        fill: url(#linear-gradient-36);
      }

      .cls-67 {
        fill: url(#linear-gradient-25);
      }

      .cls-68 {
        fill: url(#linear-gradient-28);
      }

      .cls-69 {
        fill: url(#linear-gradient-29);
      }

      .cls-70 {
        fill: url(#linear-gradient-33);
      }

      .cls-71 {
        fill: url(#linear-gradient-30);
      }

      .cls-72 {
        fill: url(#linear-gradient-32);
      }

      .cls-73 {
        fill: url(#linear-gradient-31);
      }
    </style>
    <clipPath id="clippath">
      <path class="cls-1" d="M23.4,167.84h11.93c.32,0,.58,.1,.78,.3s.3,.46,.3,.78v3.12c0,.23-.07,.41-.22,.54-.15,.13-.3,.2-.48,.2h-12.32v-4.95Zm0-10.54h10.8c.46,0,.69,.23,.69,.7v2.04c0,.32-.1,.58-.3,.78-.2,.2-.45,.3-.74,.3h-10.46v-3.82Zm-10.24-7.46v30.41h0s25.95,0,25.95,0c2.17,0,3.78-.56,4.84-1.67,1.06-1.11,1.58-2.67,1.58-4.66v-6.29c0-.84-.31-1.64-.93-2.41-.62-.77-1.37-1.31-2.24-1.63,.64-.38,1.07-.88,1.3-1.5,.23-.62,.35-1.31,.35-2.06v-4.64c0-1.74-.55-3.09-1.65-4.08-1.1-.98-2.56-1.48-4.38-1.48H13.16Z"/>
    </clipPath>
    <linearGradient id="linear-gradient" x1="-824.91" y1="359.49" x2="-823.91" y2="359.49" gradientTransform="translate(246940.7 566348.16) rotate(90) scale(686.84)" gradientUnits="userSpaceOnUse">
      <stop offset="0" stop-color="#fbc926"/>
      <stop offset="0" stop-color="#fbc926"/>
      <stop offset=".05" stop-color="#fbd245"/>
      <stop offset=".25" stop-color="#fffbcc"/>
      <stop offset=".27" stop-color="#fbf4c1"/>
      <stop offset=".6" stop-color="#c3922e"/>
      <stop offset=".67" stop-color="#cca142"/>
      <stop offset=".82" stop-color="#e5c876"/>
      <stop offset=".87" stop-color="#eed688"/>
      <stop offset=".91" stop-color="#f2df98"/>
      <stop offset=".99" stop-color="#fdf7c5"/>
      <stop offset="1" stop-color="#fffbcc"/>
    </linearGradient>
    <clipPath id="clippath-1">
      <polygon class="cls-1" points="49 149.83 49 180.25 76.11 180.25 76.11 180.24 76.11 172.78 59.58 172.78 59.58 149.83 49 149.83"/>
    </clipPath>
    <linearGradient id="linear-gradient-2" x1="-824.92" y1="359.49" x2="-823.92" y2="359.49" gradientTransform="translate(247679.12 567937.35) rotate(90) scale(688.79)" xlink:href="#linear-gradient"/>
    <clipPath id="clippath-2">
      <path class="cls-1" d="M92.99,157.29h3.6l2.26,10.76h-8.16l2.3-10.76Zm-7.55-7.46l-6.94,30.41h0s9.67,0,9.67,0l1.04-4.9h11.11l1.04,4.9h9.68s-6.9-30.42-6.9-30.42h-18.7Z"/>
    </clipPath>
    <linearGradient id="linear-gradient-3" x1="-824.9" y1="359.48" x2="-823.9" y2="359.48" gradientTransform="translate(241628.33 553978.69) rotate(90) scale(671.9)" xlink:href="#linear-gradient"/>
    <clipPath id="clippath-3">
      <path class="cls-1" d="M119.07,149.83c-.87,0-1.67,.14-2.41,.41-.74,.28-1.37,.66-1.91,1.15-.54,.49-.96,1.08-1.28,1.76-.32,.68-.48,1.43-.48,2.24v19.26c0,.81,.16,1.55,.48,2.23,.32,.68,.74,1.27,1.28,1.78,.53,.51,1.17,.9,1.91,1.17,.74,.28,1.54,.41,2.41,.41h24.04v-7.46h-19.57c-.2,0-.3-.12-.3-.35v-14.8c0-.23,.1-.35,.3-.35h9.72v4.43h9.85v-11.89h-24.04Z"/>
    </clipPath>
    <linearGradient id="linear-gradient-4" x1="-824.89" y1="359.47" x2="-823.89" y2="359.47" gradientTransform="translate(239869.17 549847.11) rotate(90) scale(666.93)" xlink:href="#linear-gradient"/>
    <clipPath id="clippath-4">
      <polygon class="cls-1" points="166.97 149.83 162.59 161.28 156.82 161.28 156.82 149.83 146.57 149.83 146.57 180.24 146.58 180.25 156.82 180.25 156.82 168.75 162.59 168.75 166.97 180.25 177.64 180.25 171.48 165.02 177.64 149.83 166.97 149.83"/>
    </clipPath>
    <linearGradient id="linear-gradient-5" x1="-824.9" y1="359.48" x2="-823.9" y2="359.48" gradientTransform="translate(241738.48 554022.28) rotate(90) scale(672.02)" xlink:href="#linear-gradient"/>
    <clipPath id="clippath-5">
      <path class="cls-1" d="M199.42,157.29h12.1c.32,0,.58,.1,.78,.3,.2,.2,.3,.46,.3,.78v3.69c0,.49-.18,.92-.54,1.28-.36,.36-.79,.54-1.28,.54h-11.37v-6.6Zm-10.07-7.46v30.41h0s10.07,0,10.07,0v-8.9h11.37c.49,0,.92,.18,1.28,.54,.36,.36,.54,.79,.54,1.28v7.07h9.11v-7.81c0-1.1-.19-2.03-.57-2.8-.38-.76-1.05-1.34-2.04-1.71,.9-.4,1.55-.98,1.98-1.73,.42-.75,.63-1.63,.63-2.65v-7.38c0-2.03-.6-3.59-1.8-4.69-1.2-1.1-2.87-1.65-5.01-1.65h-25.55Z"/>
    </clipPath>
    <linearGradient id="linear-gradient-6" x1="-824.89" y1="359.47" x2="-823.89" y2="359.47" gradientTransform="translate(239947.76 549789.56) rotate(90) scale(666.93)" xlink:href="#linear-gradient"/>
    <clipPath id="clippath-6">
      <path class="cls-1" d="M235.17,172.48c-.2-.2-.31-.46-.31-.78v-13.32c0-.32,.1-.58,.31-.78,.2-.2,.46-.3,.78-.3h12.37c.29,0,.54,.1,.74,.3,.2,.2,.3,.46,.3,.78v13.32c0,.32-.1,.58-.3,.78-.2,.2-.45,.3-.74,.3h-12.37c-.32,0-.58-.1-.78-.3m-2.82-22.65c-2.37,0-4.16,.64-5.36,1.91-1.2,1.27-1.8,2.99-1.8,5.16v16.27c0,2.14,.6,3.85,1.8,5.14,1.2,1.29,2.99,1.93,5.36,1.93h19.52c2.4,0,4.19-.65,5.38-1.95,1.19-1.27,1.78-2.98,1.78-5.12v-16.27c0-2.17-.59-3.89-1.78-5.16-1.19-1.27-2.98-1.91-5.38-1.91h-19.52Z"/>
    </clipPath>
    <linearGradient id="linear-gradient-7" x1="-824.9" y1="359.48" x2="-823.9" y2="359.48" gradientTransform="translate(241736.79 553775.93) rotate(90) scale(671.79)" xlink:href="#linear-gradient"/>
    <clipPath id="clippath-7">
      <path class="cls-1" d="M282.51,149.83l-5.73,11.45-5.73-11.45h-10.72l7.68,14.41c.38,.66,.72,1.26,1.04,1.8,.32,.54,.64,1.06,.95,1.58,.32,.52,.61,1.05,.87,1.58,.26,.54,.52,1.15,.78,1.84v9.2h10.24v-8.94c0-.06,0-.1-.02-.13-.02-.03-.02-.06-.02-.09,.26-.69,.53-1.32,.8-1.87,.27-.55,.57-1.09,.89-1.61,.32-.52,.64-1.06,.96-1.61,.32-.52,.67-1.11,1.04-1.78l7.68-14.41h-10.72Z"/>
    </clipPath>
    <linearGradient id="linear-gradient-8" x1="-824.9" y1="359.48" x2="-823.9" y2="359.48" gradientTransform="translate(243549.58 557822.41) rotate(90) scale(676.73)" xlink:href="#linear-gradient"/>
    <clipPath id="clippath-8">
      <path class="cls-1" d="M304.68,157.29h3.6l2.26,10.76h-8.16l2.3-10.76Zm-7.55-7.46l-6.94,30.41h0s9.67,0,9.67,0l1.04-4.9h11.11l1.04,4.9h9.68l-6.9-30.42h-18.7Z"/>
    </clipPath>
    <linearGradient id="linear-gradient-9" x1="-824.9" y1="359.48" x2="-823.9" y2="359.48" gradientTransform="translate(241841.59 553816.15) rotate(90) scale(671.9)" xlink:href="#linear-gradient"/>
    <clipPath id="clippath-9">
      <polygon class="cls-1" points="326.2 149.83 326.2 180.24 326.2 180.25 353.32 180.25 353.32 172.78 336.79 172.78 336.79 149.83 326.2 149.83"/>
    </clipPath>
    <linearGradient id="linear-gradient-10" x1="-824.9" y1="359.48" x2="-823.9" y2="359.48" gradientTransform="translate(242049.9 554196.12) rotate(90) scale(672.39)" xlink:href="#linear-gradient"/>
    <clipPath id="clippath-10">
      <path class="cls-1" d="M95.87,203.2l2,4.54h-3.99l2-4.54Zm-.65-1.35l-4.19,9.26h1.36l1.02-2.32h4.92l1.02,2.32h1.39l-4.21-9.26h-1.31Z"/>
    </clipPath>
    <linearGradient id="linear-gradient-11" x1="-824.87" y1="359.46" x2="-823.87" y2="359.46" gradientTransform="translate(233833.45 536129.29) rotate(90) scale(650.25)" xlink:href="#linear-gradient"/>
    <clipPath id="clippath-11">
      <path class="cls-1" d="M109.54,202.1c-.53,.24-.92,.56-1.18,.95-.26,.4-.39,.84-.39,1.34,0,.59,.15,1.06,.46,1.41,.31,.35,.67,.61,1.1,.78,.43,.17,.99,.34,1.69,.5,.56,.13,.99,.25,1.29,.36,.3,.1,.56,.26,.77,.46,.21,.2,.31,.46,.31,.77,0,.43-.19,.78-.57,1.04-.38,.26-.95,.39-1.72,.39-.58,0-1.15-.1-1.7-.3-.55-.2-1-.46-1.36-.77l-.49,1.03c.37,.34,.88,.62,1.53,.84,.65,.22,1.32,.32,2.02,.32,.79,0,1.45-.12,1.99-.35,.54-.23,.94-.55,1.2-.95,.26-.4,.4-.84,.4-1.33,0-.58-.15-1.04-.46-1.39-.3-.34-.67-.6-1.09-.77-.42-.17-.98-.33-1.68-.5-.54-.12-.96-.24-1.28-.35-.31-.11-.57-.26-.79-.46-.21-.2-.32-.46-.32-.78,0-.43,.19-.78,.56-1.06,.38-.27,.94-.41,1.69-.41,.42,0,.85,.06,1.29,.19,.44,.13,.86,.32,1.24,.56l.44-1.06c-.38-.26-.83-.47-1.36-.61-.53-.14-1.07-.21-1.61-.21-.79,0-1.44,.12-1.97,.36"/>
    </clipPath>
    <linearGradient id="linear-gradient-12" x1="-824.84" y1="359.43" x2="-823.84" y2="359.43" gradientTransform="translate(226128.98 518431.73) rotate(90) scale(628.82)" xlink:href="#linear-gradient"/>
    <clipPath id="clippath-12">
      <polygon class="cls-1" points="123.28 201.85 123.28 201.85 123.28 211.11 124.61 211.11 124.61 201.85 123.28 201.85"/>
    </clipPath>
    <linearGradient id="linear-gradient-13" x1="-824.89" y1="359.47" x2="-823.89" y2="359.47" gradientTransform="translate(239864.12 549863.96) rotate(90) scale(666.93)" xlink:href="#linear-gradient"/>
    <clipPath id="clippath-13">
      <path class="cls-1" d="M137.3,203.2l2,4.54h-3.99l2-4.54Zm-.65-1.35l-4.19,9.26h1.36l1.02-2.32h4.92l1.02,2.32h1.39l-4.21-9.26h-1.31Z"/>
    </clipPath>
    <linearGradient id="linear-gradient-14" x1="-824.91" y1="359.49" x2="-823.91" y2="359.49" gradientTransform="translate(245737.33 563274.35) rotate(90) scale(683.19)" xlink:href="#linear-gradient"/>
    <clipPath id="clippath-14">
      <polygon class="cls-1" points="156.67 201.85 156.67 208.76 151.11 201.85 150.03 201.85 150.03 201.85 150.03 211.11 151.35 211.11 151.35 204.21 156.91 211.11 157.99 211.11 157.99 201.85 157.99 201.85 156.67 201.85"/>
    </clipPath>
    <linearGradient id="linear-gradient-15" x1="-824.89" y1="359.47" x2="-823.89" y2="359.47" gradientTransform="translate(239893.27 549841.78) rotate(90) scale(666.93)" xlink:href="#linear-gradient"/>
    <clipPath id="clippath-15">
      <polygon class="cls-1" points="183.64 201.85 178.61 207.02 178.61 201.85 177.29 201.85 177.29 201.85 177.29 211.11 178.61 211.11 178.61 208.72 180.3 207 183.85 211.11 185.39 211.11 181.19 206.02 185.14 201.85 183.64 201.85"/>
    </clipPath>
    <linearGradient id="linear-gradient-16" x1="-824.93" y1="359.5" x2="-823.93" y2="359.5" gradientTransform="translate(252903.43 579563.49) rotate(90) scale(702.98)" xlink:href="#linear-gradient"/>
    <clipPath id="clippath-16">
      <polygon class="cls-1" points="193.28 201.85 193.28 201.85 193.28 211.11 193.28 211.11 194.6 211.11 194.6 201.85 193.28 201.85"/>
    </clipPath>
    <linearGradient id="linear-gradient-17" x1="-824.89" y1="359.47" x2="-823.89" y2="359.47" gradientTransform="translate(239936.48 549810.63) rotate(90) scale(666.93)" xlink:href="#linear-gradient"/>
    <clipPath id="clippath-17">
      <polygon class="cls-1" points="202.52 201.85 202.52 203 205.7 203 205.7 211.11 207.01 211.11 207.01 203 210.18 203 210.18 201.85 210.18 201.85 202.52 201.85"/>
    </clipPath>
    <linearGradient id="linear-gradient-18" x1="-824.89" y1="359.47" x2="-823.89" y2="359.47" gradientTransform="translate(239948.97 549802.21) rotate(90) scale(666.93)" xlink:href="#linear-gradient"/>
    <clipPath id="clippath-18">
      <path class="cls-1" d="M219.61,202.36c-.75,.41-1.33,.97-1.76,1.69s-.64,1.53-.64,2.43,.21,1.71,.64,2.43c.42,.72,1.01,1.28,1.75,1.69,.74,.41,1.58,.61,2.51,.61,.72,0,1.39-.12,1.99-.37,.61-.25,1.12-.61,1.54-1.08l-.86-.83c-.71,.74-1.57,1.11-2.61,1.11-.69,0-1.31-.15-1.86-.46-.56-.31-.99-.73-1.3-1.28-.31-.54-.47-1.15-.47-1.82s.16-1.28,.47-1.82c.31-.54,.75-.97,1.3-1.28,.56-.31,1.18-.46,1.86-.46,1.04,0,1.91,.37,2.61,1.1l.86-.83c-.42-.48-.94-.83-1.53-1.08-.6-.24-1.26-.36-1.99-.36-.92,0-1.76,.21-2.51,.62"/>
    </clipPath>
    <linearGradient id="linear-gradient-19" x1="-824.84" y1="359.44" x2="-823.84" y2="359.44" gradientTransform="translate(227322.15 520834.88) rotate(90) scale(631.82)" xlink:href="#linear-gradient"/>
    <clipPath id="clippath-19">
      <polygon class="cls-1" points="240.65 201.85 240.65 205.83 235.34 205.83 235.34 201.85 234.01 201.85 234.01 211.11 235.34 211.11 235.34 206.98 240.65 206.98 240.65 211.11 241.98 211.11 241.98 211.11 241.98 201.85 241.98 201.85 240.65 201.85"/>
    </clipPath>
    <linearGradient id="linear-gradient-20" x1="-824.86" y1="359.45" x2="-823.86" y2="359.45" gradientTransform="translate(233488.39 534909.5) rotate(90) scale(648.9)" xlink:href="#linear-gradient"/>
    <clipPath id="clippath-20">
      <polygon class="cls-1" points="251.24 201.85 251.23 201.85 251.23 211.11 251.24 211.11 257.95 211.11 257.95 209.96 252.56 209.96 252.56 206.97 257.2 206.97 257.2 205.85 252.56 205.85 252.56 203 257.77 203 257.77 201.85 251.24 201.85"/>
    </clipPath>
    <linearGradient id="linear-gradient-21" x1="-824.94" y1="359.51" x2="-823.94" y2="359.51" gradientTransform="translate(254124.11 582126.53) rotate(90) scale(706.16)" xlink:href="#linear-gradient"/>
    <clipPath id="clippath-21">
      <polygon class="cls-1" points="273.22 201.85 273.22 208.76 267.66 201.85 266.58 201.85 266.58 211.11 267.9 211.11 267.9 204.21 273.46 211.11 274.54 211.11 274.54 201.85 274.54 201.85 273.22 201.85"/>
    </clipPath>
    <linearGradient id="linear-gradient-22" x1="-824.96" y1="359.52" x2="-823.96" y2="359.52" gradientTransform="translate(260027.01 595595.6) rotate(90) scale(722.5)" xlink:href="#linear-gradient"/>
    <clipPath id="clippath-22">
      <path class="cls-1" d="M181.03,27.06l.77,1.4-1.57-.3c-9.35-1.79-17.19-6.04-23.84-12.95,4.72,9.99,11.89,18.07,21.38,24.07l-.58,1.36c-4.33-1.06-8.39-3.06-12.4-6.11-5.93,1.17-10.42,3.8-13.91,8.17,3.69-1.46,6.3-1.15,7.62-.22,.89,.62,1.31,1.56,1.15,2.57-.27,1.68-2.04,3.17-4.75,3.99-1.7,.52-3.21,1.1-4.57,1.77-.27,.13-.54,.27-.8,.41-3.22,1.75-5.39,4.02-6.63,6.9,4.37-2.5,7.51-2.1,8.68-.46,.92,1.28,.69,3.56-2.01,5.55-4.76,3.49-8.98,9.56-6.32,15.83,1.04-3.32,2.56-4.45,3.74-4.8,1.48-.43,3.1,.17,4.56,1.67,3.49,3.59,5.8,11.76,3.31,19.97,9.6,11.71,21.56,13.44,27.05,10.91,2.54-1.17,3.68-3.14,3.22-5.53-.62-3.21-3.59-5.81-7.02-8.83-5.48-4.81-12.3-10.81-12.74-22.25-.25-6.18,2.31-16.98,22.22-19.87l.54,1.35c-3.73,2.6-6.32,5.79-7.88,9.73,5.19-2.23,11.06-2.53,17.48-.88l2.56,.66-2.52,.79c-2.33,.72-4.14,1.92-5.49,3.63,7.96-1.15,16.4-.56,18.2,2.87,.44,.83,.64,2.11-.48,3.79,5.27-.28,9-2.06,11.32-5.4-3.34,.86-5.92,.76-8.02-.3-2.19-1.1-3.48-3.08-4.73-4.99-1.89-2.9-3.67-5.63-8.54-5.5l-.17-1.48c7.31-1.53,16.38-2.13,17.91,1.21,.59,1.3-.05,2.82-1.9,4.53,3.06,.42,5.57-.11,7.64-1.61l1.16-.84,.03,1.43c.02,.98-.16,1.93-.56,2.86,6.14-1.1,9.75-4.9,9.58-7.3-.14-1.86-2.61-2.87-6.61-2.69-8.51,.37-10.35-1.29-11.96-2.74-.82-.73-1.46-1.32-3.07-1.56-1.55-.23-3.12,.1-4.79,.44-.82,.17-1.67,.35-2.52,.46l-.59,.07-.2-.56c-.67-1.84-1.64-3.5-2.89-4.92l-1.07-1.22,1.62-.03c1.99-.03,3.93,.78,5.81,1.57,3.59,1.51,6.99,2.95,10.86-1.21-9.5-1.74-18.06-5.69-25.46-11.76-6.37-5.21-11.93-12.02-16.58-20.27,.33,5.89,1.94,11.47,4.8,16.64"/>
    </clipPath>
    <linearGradient id="linear-gradient-23" x1="-824.9" y1="359.48" x2="-823.9" y2="359.48" gradientTransform="translate(242865.58 556491.92) rotate(90) scale(675.08)" xlink:href="#linear-gradient"/>
    <clipPath id="clippath-23">
      <path class="cls-1" d="M182.07,9.99c1.28,2.12,2.65,4.15,4.08,6.07h.02c13.89,0,26.95,5.41,36.78,15.23,9.82,9.83,15.24,22.89,15.24,36.78,0,8.08-1.8,15.84-5.35,23.04l-.41,.84-.73-.59c-7.2-5.83-15.3-8.72-24.68-8.78,9.02,3.9,15.86,10.1,19.45,17.73,2.88,6.1,3.69,12.93,2.43,20.32,13.31-12.05,20.9-29.11,20.9-47.14,0-35.08-28.53-63.62-63.61-63.62-1.35,0-2.7,.05-4.1,.14"/>
    </clipPath>
    <linearGradient id="linear-gradient-24" x1="-824.9" y1="359.48" x2="-823.9" y2="359.48" gradientTransform="translate(243176.92 557120.31) rotate(90) scale(675.87)" xlink:href="#linear-gradient"/>
    <clipPath id="clippath-24">
      <path class="cls-1" d="M141.4,28.23s-.02,.02-.03,.02l-.03,.03s-.02,.02-.04,.04c-.02,.02-.04,.04-.06,.05-3.28,3.25-6.18,6.82-8.64,10.65h10.41c1.26-1.86,2.63-3.65,4.13-5.35,.01-.01,.02-.03,.04-.04,.03-.03,.06-.06,.08-.1,.06-.08,.14-.15,.21-.23,2.57-2.87,5.48-5.47,8.7-7.74-.6-.92-1.19-1.86-1.75-2.81t0,0s0,0,0,0c-.34-.58-.68-1.17-1-1.76,0,0,0,0,0,0h0c-.25-.45-.48-.89-.72-1.35-4.07,2.45-7.87,5.33-11.3,8.61"/>
    </clipPath>
    <linearGradient id="linear-gradient-25" x1="-824.89" y1="359.48" x2="-823.89" y2="359.48" gradientTransform="translate(239887.77 549782.89) rotate(90) scale(666.93)" xlink:href="#linear-gradient"/>
    <clipPath id="clippath-25">
      <path class="cls-1" d="M171.9,66.18c.16,.08,.33,.15,.49,.23,.1-.47,.24-.94,.39-1.41-.5,.15-.78,.63-.88,1.19"/>
    </clipPath>
    <linearGradient id="linear-gradient-26" x1="-825.03" y1="359.58" x2="-824.03" y2="359.58" gradientTransform="translate(287942.49 659835.61) rotate(90) scale(800.31)" xlink:href="#linear-gradient"/>
    <clipPath id="clippath-26">
      <path class="cls-1" d="M207.53,123.51v.81s.08-.1,.12-.16c.03-.3,.07-.61,.09-.91-.08,.08-.15,.17-.21,.26"/>
    </clipPath>
    <linearGradient id="linear-gradient-27" x1="-537.55" y1="150.34" x2="-536.55" y2="150.34" gradientTransform="translate(508.42 1198.26) rotate(90) scale(2)" xlink:href="#linear-gradient"/>
    <clipPath id="clippath-27">
      <path class="cls-1" d="M160.03,133.9c1.32,.47,2.67,.87,4.01,1.24,1.28,.35,2.57,.66,3.86,.92v-2.17h-7.87Zm32.8,0v2.17c1.29-.26,2.58-.57,3.86-.92,1.35-.37,2.69-.78,4.01-1.24h-7.87Zm16.55-7.02c-.07-.33,.65-.51,.69-.15-.08,.15-.26,.25-.44,.25-.1,0-.19-.03-.25-.1m.13-.63c-.19-.18-.07-.61,.21-.61,.36,.05,.22,.66-.06,.66-.05,0-.1-.02-.15-.05m.36-3.57c.19,.5,.37,1,.54,1.51-.29,.01-.58,.01-.87,.02,.11-.51,.21-1.02,.33-1.53m2.19-.49c.19,.46,.38,.93,.57,1.39-.44,.18-.87,.39-1.31,.58,.26-.66,.45-1.33,.73-1.97m2.15-.93c.49,.69,.36,1.59-.46,1.93,.12-.65,.27-1.29,.46-1.93m-2.87-2.14c.24,.53,.49,1.07,.6,1.65-.29,.22-.63,.34-.95,.47,.08-.71,.2-1.42,.35-2.13m-3.42-.38c.45,.32,.61,.85,.54,1.41-.42-.34-.55-.88-.54-1.41m5.54-.35c.31,.51,.34,1.11,.33,1.69-.27,.03-.53,.06-.79,.09,.19-.58,.32-1.18,.47-1.78m-9.27-.23c.64-.55,1.47-.85,2.24-.41-.26,.37-.53,.74-.79,1.11-.48-.24-.96-.47-1.44-.7m10.66,.86c.06-.72,.08-1.44,.08-2.16,.13,.02,.38,.05,.51,.07,.05,.71,.1,1.42,.12,2.13-.24-.01-.48-.03-.71-.04m-5.53-3c.56,.37,.37,1.04,.25,1.59-.3-.47-.36-1.04-.25-1.59m2.15-.45c.1,.3,.23,.58,.34,.87,.7,.56,.08,.73-.5,.83,.06-.57,.12-1.14,.16-1.71m-7.24,.26c.22-.21,.33-.72,.7-.63,.21,.31,.37,.65,.54,.99-.42-.12-.83-.23-1.24-.36m8.73-1.16c.32,.02,.64,.04,.95,.07-.17,.39-.33,.78-.49,1.18-.17-.41-.31-.83-.46-1.24m-5.18,0c.58,.35,.82,.99,.89,1.65-.76-.21-1.28-.81-.89-1.65m-2.31-.48c.14-.44,.34-.87,.57-1.27,.49,.46,.85,1.05,.87,1.76-.48-.17-.96-.33-1.44-.49m9.41-1.99c.57,.29,.85,.86,.87,1.5-.54-.31-.78-.89-.87-1.5m-6.19-.12c.58,.32,.76,.99,.81,1.62-.51-.38-.92-.92-.81-1.62m-5.47,.78c.1-.3,.18-.61,.26-.92,.53,.18,1,.5,1.29,1-.52-.02-1.03-.05-1.55-.08m7.98-1.06c.64-.55,1.47-.84,2.24-.41-.26,.37-.53,.74-.79,1.11-.48-.24-.96-.47-1.44-.7m-4.86,.14c.12-.48,.23-.96,.34-1.44,.5,.4,.92,.9,1.25,1.46-.53,0-1.06-.02-1.59-.02m-1.77-2.48c.51,.41,.98,.87,1.36,1.42-.69,.1-1.39,.13-2.08,.18,.22-.54,.46-1.07,.72-1.6m11.41-.58c.7,.32,.61,1.11,.57,1.75-.42-.48-.6-1.11-.57-1.75m-5.8,.7c.21-.27,.24-.88,.68-.84,.3,.3,.54,.67,.79,1.02-.49-.06-.99-.12-1.47-.18m3.81-1.96c.72,.29,1.11,.97,1.31,1.7-.9-.1-1.59-.69-1.31-1.7m-6.98,1.56c-.05-.53,.45-.67,.82-.84,0-.34-.03-.67-.02-1.02,.57,.6,.76,1.43,.82,2.25-.55-.09-1.12-.13-1.62-.38m-2.23-.72c.1-.51,.19-1.01,.28-1.51,.81,.14,1.51,.77,1.39,1.68-.56-.05-1.11-.12-1.67-.17m6.51-.97c.07-.53,.22-1.05,.42-1.54,.63,.44,1.14,1.04,1.3,1.83-.57-.1-1.14-.2-1.72-.29m-2.66-2.19c.63,.11,1.22,.39,1.64,.9-.59,.07-1.18,.13-1.77,.18,.06-.36,.09-.72,.13-1.08m5.92-.78c.72,.26,1.03,.98,1.21,1.68-.65-.34-1.21-.88-1.21-1.68m-9.13,1.48c.04-.6-.18-1.64,.59-1.8,.64,.36,.86,1.12,1.03,1.8-.21,0-.41,0-.62,0-.33,0-.67,0-1-.01m6.57-2.91c.64,.37,1.2,.86,1.67,1.42-.6,.09-1.2,.17-1.8,.26,.05-.56,.08-1.12,.12-1.69m-2.57-.8c.65,.37,1.26,.81,1.79,1.36-.77,.23-1.55,.4-2.33,.57,.15-.65,.33-1.3,.54-1.93m-3.28,.44c.02-.33,.04-.66,.09-.99,.76,.11,1.52,.23,2.27,.41-.37,.52-.93,.63-1.51,.63-.29,0-.58-.03-.85-.05m-3.18-.32c.05-.23,.11-.45,.17-.68,.42,.08,.85,.17,1.27,.27-.27,.28-.53,.56-.8,.83-.21-.14-.43-.27-.64-.41m6.57-3.06c.94,.02,1.85,.6,1.87,1.66-.64,.04-1.28,.07-1.92,.11,.02-.59,.04-1.18,.05-1.77m-8.63-.02c.54,.43,1.12,.8,1.68,1.21-.7,.25-1.46,.36-2.01,.92-.01-.72-.11-1.5,.34-2.13m11.24,2.2c-.15-.59,.39-.84,.78-1.11-.07-.38-.15-.76-.2-1.15,.74,.58,1.11,1.49,1.33,2.4-.12,0-.25,0-.37,0-.1,0-.21,0-.31,0-.42,0-.84-.02-1.24-.15m-9.2-1.58c.39-.45,.8-.88,1.18-1.33,.44,.49,1,.84,1.59,1.11-.87,.11-1.74,.22-2.62,.22-.05,0-.1,0-.15,0m3.88-1.46c.68,.39,1.41,.71,2.11,1.07-.74,.41-1.59,.67-2.12,1.4-.14-.82-.39-1.68,0-2.47m-6.13-1.6c.35,.24,1.28,.2,1.17,.71-.7,.47-1.53,.68-2.32,.93,.31-.6,.71-1.14,1.15-1.64m9.44-.82c.79,.29,1.17,1.12,1.48,1.86-.61,.11-1.22,.2-1.83,.28-.06-.68-.5-1.83,.35-2.14m-7.1,1.16c.32-.4,.63-.8,.94-1.21,.56,.26,1.12,.51,1.67,.76-.52,.4-1.04,.79-1.55,1.2-.36-.25-.71-.49-1.07-.74m3.85-1.74c.78,.36,1.55,.75,2.29,1.18-.73,.44-1.48,.84-2.21,1.27-.65-.74-.75-1.67-.08-2.45m-7.34,.39c.1-.46,.22-.9,.33-1.36,.62,.11,1.24,.2,1.86,.31-.38,.49-.74,1-1.09,1.51-.37-.16-.73-.31-1.1-.46m6.82-1.29c.02-.26,.04-.53,.06-.8,.49,.02,.99,.05,1.48,.07-.25,.37-.5,.73-.76,1.08-.26-.12-.53-.23-.79-.36m-10.73-.2c.64-.56,1.47-.84,2.24-.41-.26,.37-.53,.74-.79,1.11-.48-.24-.96-.47-1.45-.7m-1.85-1.78c.14-.48,.28-.95,.41-1.43,.7,.08,1.4,.17,2.1,.26-.24,.53-.47,1.07-.69,1.61-.6-.16-1.22-.3-1.83-.44m8.85,2.28c.23-.42,.46-.86,.7-1.28-.3-.73-1.06-.94-1.72-1.21,.3-.41,.6-.83,.9-1.24,.61,.28,1.23,.57,1.84,.86-.57,.49-.93,1.16-1.01,1.93,.48,.02,.97,.03,1.46,.05,.02,.07,.07,.23,.09,.31-.42,.3-.83,.62-1.24,.94-.35-.12-.69-.23-1.03-.35m-4.38-1.23c.12-.45,.38-.91,.31-1.39-.39-.4-.9-.63-1.38-.9,.19-.4,.36-.8,.62-1.16,.62-.19,1.23,.18,1.81,.37-.33,.58-.59,1.21-.75,1.88,.6,.08,1.2,.14,1.8,.2-.41,.51-.81,1.02-1.19,1.55-.41-.18-.82-.36-1.22-.55m2.59-3.47c.53-.41,1.17-.6,1.8-.35-.06,.27-.12,.54-.18,.82-.54-.15-1.09-.3-1.62-.46m-8.32-.13c.18-.53,.35-1.06,.51-1.6,.73,.18,1.45,.41,2.14,.72-.32,.51-.65,1.03-.97,1.54-.56-.22-1.12-.44-1.68-.67m3.21-.9c.62-.74,1.51-1.22,2.46-.86-.23,.47-.47,.94-.7,1.4-.59-.19-1.17-.36-1.76-.54m-8.03-.91c.18-.44,.37-.88,.54-1.32-.71-.52-1.48-1.19-.83-2.12,.64,.26,1.29,.49,1.96,.68-.41,.4-1.24,.92-.78,1.59,.59,.28,1.22,.43,1.83,.65-.45,.42-.89,.83-1.34,1.24-.46-.25-.92-.49-1.38-.72m3.56-.67c.27-.52,.54-1.04,.82-1.57-.73-.2-1.58-.48-1.73-1.37,.88-.08,1.89,.27,1.73,1.37,.61,.14,1.2,.35,1.77,.62-.39,.51-.77,1.03-1.11,1.57-.49-.21-.99-.41-1.48-.63m-4.46-3.83c.06-.37,.12-.75,.19-1.12,.33,.16,.67,.3,1.02,.43-.12,.33-.24,.65-.36,.96-.28-.09-.57-.18-.85-.27m-2.95,1.07c.76-.84-.14-1.97,.39-2.95,.49,.34,.95,.72,1.41,1.1-.35,.28-.73,.53-1.03,.86-.16,.84,.77,1.09,1.3,1.44-.43,.18-.85,.35-1.27,.54-.27-.33-.53-.65-.8-.99m-2.3-4.21c.28,.55,.63,1.11,1.29,1.18-.57,.16-1.11,.41-1.64,.69-.5-.66-.35-1.45,.35-1.88m0-1.34c.06-.37,.23-.72,.37-1.06,.58,.46,1.06,1.05,1.31,1.77-.57-.16-1.35-.12-1.68-.71m-4.03-.08c.23-.53,.58-1,.89-1.49,.1,.01,.31,.04,.41,.06,0,.88,.5,1.58,1.11,2.14-.78-.21-1.92,.08-2.41-.7m1.66-1.6c.06-.34,.15-.68,.21-1.02,.47,.49,.99,.92,1.47,1.39-.57-.11-1.13-.24-1.69-.37m-3.71-1.33c.18-.72,.57-1.35,1.1-1.86,.45,.74,.81,1.53,1.07,2.36-.73-.13-1.46-.3-2.17-.49m-1.77-4.05c.43-.41,.88-.81,1.34-1.18,.27,.71,.47,1.45,.64,2.19-.7-.26-1.36-.6-1.98-1.02m-.92-3.19c-.12-.51,.33-.86,.62-1.19,.44,.53,.69,1.19,.74,1.89-.47-.19-.98-.35-1.37-.7m0-4.04c.11-.03,.22-.06,.35-.06-.07,.56-.21,1.1-.43,1.61-.1-.04-.21-.09-.31-.14-.83,3.74-.17,7.51,1.99,11.4,2.78,5,7.96,10.11,15.86,15.63,4.98,3.48,7.46,7.77,6.98,12.1-.43,3.92-3.26,7.48-7.68,9.78h3.3v6.39h11.57c.04-.17,.08-.34,.13-.51,.03,.17,.07,.34,.11,.51h1.52c-.09-.36-.14-.72-.22-1.08,.27,.06,.54,.12,.81,.19-.19,.29-.37,.59-.55,.89h1.32v1.13c.09,.03,.18,.06,.24,.07-.01,.11-.02,.22-.03,.33,.09-.1,.19-.18,.29-.27-.02,.43-.14,.84-.38,1.18-.02,.2-.04,.41-.06,.61-.02,0-.04,0-.06-.01v.72c.03-.06,.06-.12,.08-.18-.02,.18-.05,.36-.08,.54v.63c.23-.15,.46-.3,.7-.44-.18,.29-.42,.53-.7,.71v3.99c1.2-.75,2.34-1.59,3.4-2.56,3.5-3.19,6.17-7.39,7.29-12.02,.68-2.82,.77-5.77,.15-8.61-2.45-11.23-13.02-16.72-23.26-22.03-5.74-2.98-11.17-5.8-15.28-9.57-3.89-3.56-6.06-7.58-6.58-12.23-.18,.42-.33,.85-.46,1.27m-48.53-8.88c-.49,1.55-.94,3.21-1.32,4.97-.1,.44-.18,.87-.26,1.3h-.03c-.08,.48-.15,.96-.23,1.44-.66,4.01-.78,7.56-.7,10.42,.25,19.66,9.32,37.2,23.44,48.83,2.51,2.08,5.2,3.98,8.01,5.66v-7.04h14.7v-5.33c-4.69-1.43-9.66-3.98-14.6-8-.31-.25-.61-.51-.91-.76-11.59-9.92-18.21-24.25-18.21-39.54,0-4.05,.47-8.04,1.38-11.89h-.12s0-.04,.01-.06h-11.16Zm17.15-27.89s-.02,.02-.03,.02l-.03,.03s-.02,.02-.04,.04c-.02,.02-.04,.04-.06,.05-3.28,3.25-6.18,6.82-8.64,10.65h10.32c1.28-1.88,2.69-3.67,4.22-5.35,.01-.01,.02-.03,.04-.04,.03-.03,.06-.06,.08-.1,.06-.08,.14-.15,.21-.23,2.57-2.87,5.48-5.47,8.7-7.74-.6-.92-1.19-1.86-1.75-2.81t0,0s0,0,0,0c-.42-.53-.76-1.13-1-1.76,0,0,0,0,0,0h0s-.72-1.35-.72-1.35c-4.07,2.45-7.87,5.33-11.3,8.61"/>
    </clipPath>
    <linearGradient id="linear-gradient-28" x1="-824.9" y1="359.48" x2="-823.9" y2="359.48" gradientTransform="translate(243629.69 558302.8) rotate(90) scale(677.25)" xlink:href="#linear-gradient"/>
    <clipPath id="clippath-28">
      <path class="cls-1" d="M149.53,51.22h.8v-.41c-.27,.13-.54,.27-.8,.41"/>
    </clipPath>
    <linearGradient id="linear-gradient-29" x1="-824.89" y1="359.47" x2="-823.89" y2="359.47" gradientTransform="translate(239903.28 549783.1) rotate(90) scale(666.93)" xlink:href="#linear-gradient"/>
    <clipPath id="clippath-29">
      <polygon class="cls-1" points="126.77 40.43 126.77 43.92 139.68 43.92 139.68 49.81 148.92 49.81 148.92 40.43 126.77 40.43"/>
    </clipPath>
    <linearGradient id="linear-gradient-30" x1="-824.88" y1="359.46" x2="-823.88" y2="359.46" gradientTransform="translate(236449.55 541931.92) rotate(90) scale(657.4)" xlink:href="#linear-gradient"/>
    <clipPath id="clippath-30">
      <polygon class="cls-1" points="116.12 45.33 116.12 45.33 116.12 54.71 138.27 54.71 138.27 45.33 116.12 45.33"/>
    </clipPath>
    <linearGradient id="linear-gradient-31" x1="-824.88" y1="359.46" x2="-823.88" y2="359.46" gradientTransform="translate(236439.14 541942.68) rotate(90) scale(657.4)" xlink:href="#linear-gradient"/>
    <clipPath id="clippath-31">
      <polygon class="cls-1" points="169.27 116.73 169.27 121.71 178.14 121.71 178.14 127.14 182.56 127.14 182.56 121.71 191.42 121.71 191.42 116.73 169.27 116.73"/>
    </clipPath>
    <linearGradient id="linear-gradient-32" x1="-824.89" y1="359.47" x2="-823.89" y2="359.47" gradientTransform="translate(239921.61 549790.37) rotate(90) scale(666.93)" xlink:href="#linear-gradient"/>
    <clipPath id="clippath-32">
      <polygon class="cls-1" points="154.57 123.12 154.57 123.12 154.57 132.49 154.57 132.49 167.86 132.49 167.86 127.14 176.73 127.14 176.73 123.12 176.73 123.12 154.57 123.12"/>
    </clipPath>
    <linearGradient id="linear-gradient-33" x1="-824.89" y1="359.47" x2="-823.89" y2="359.47" gradientTransform="translate(239908.84 549805.76) rotate(90) scale(666.93)" xlink:href="#linear-gradient"/>
    <clipPath id="clippath-33">
      <path class="cls-1" d="M206.17,121.71h0s0,.03,.01,.05c.01-.02,.02-.04,.03-.05h-.04Z"/>
    </clipPath>
    <linearGradient id="linear-gradient-34" x1="-247.15" y1="-60.77" x2="-246.15" y2="-60.77" gradientTransform="translate(145.64 367.37) rotate(90)" xlink:href="#linear-gradient"/>
    <clipPath id="clippath-34">
      <polygon class="cls-1" points="183.97 123.12 183.97 123.12 183.97 127.14 192.83 127.14 192.83 132.49 206.12 132.49 206.12 123.12 206.12 123.12 183.97 123.12"/>
    </clipPath>
    <linearGradient id="linear-gradient-35" x1="-824.88" y1="359.46" x2="-823.88" y2="359.46" gradientTransform="translate(236505.4 541920.09) rotate(90) scale(657.4)" xlink:href="#linear-gradient"/>
    <clipPath id="clippath-35">
      <rect class="cls-1" x="169.27" y="128.55" width="22.15" height="9.37"/>
    </clipPath>
    <linearGradient id="linear-gradient-36" x1="-824.88" y1="359.46" x2="-823.88" y2="359.46" gradientTransform="translate(236487.55 541934.29) rotate(90) scale(657.4)" xlink:href="#linear-gradient"/>
  </defs>
  <g class="cls-3">
    <rect class="cls-2" x="7.3" y="142.87" width="44.09" height="44.34" transform="translate(-116.1 81.71) rotate(-50.11)"/>
  </g>
  <g class="cls-4">
    <rect class="cls-43" x="42.19" y="144.88" width="40.73" height="40.31" transform="translate(-104.19 107.19) rotate(-50.11)"/>
  </g>
  <g class="cls-7">
    <rect class="cls-41" x="72.67" y="142.8" width="44.21" height="44.47" transform="translate(-92.64 131.91) rotate(-50.11)"/>
  </g>
  <g class="cls-6">
    <rect class="cls-42" x="106.73" y="143.73" width="42.65" height="42.61" transform="translate(-80.7 157.44) rotate(-50.11)"/>
  </g>
  <g class="cls-5">
    <rect class="cls-46" x="140.48" y="143.37" width="43.26" height="43.34" transform="translate(-68.48 183.58) rotate(-50.11)"/>
  </g>
  <g class="cls-11">
    <rect class="cls-44" x="183.49" y="142.87" width="44.09" height="44.34" transform="translate(-52.91 216.9) rotate(-50.11)"/>
  </g>
  <g class="cls-10">
    <rect class="cls-45" x="219.59" y="142.3" width="45.04" height="45.47" transform="translate(-39.79 244.96) rotate(-50.11)"/>
  </g>
  <g class="cls-8">
    <rect class="cls-39" x="254.57" y="142.67" width="44.43" height="44.74" transform="translate(-27.35 271.56) rotate(-50.11)"/>
  </g>
  <g class="cls-9">
    <rect class="cls-40" x="284.36" y="142.8" width="44.21" height="44.47" transform="translate(-16.71 294.33) rotate(-50.11)"/>
  </g>
  <g class="cls-12">
    <rect class="cls-59" x="319.39" y="144.88" width="40.73" height="40.31" transform="translate(-4.77 319.88) rotate(-50.11)"/>
  </g>
  <g class="cls-32">
    <rect class="cls-60" x="89.22" y="199.79" width="13.33" height="13.39" transform="translate(-124.04 147.63) rotate(-50.11)"/>
  </g>
  <g class="cls-37">
    <rect class="cls-58" x="105.39" y="200.71" width="11.84" height="11.54" transform="translate(-118.5 159.46) rotate(-50.11)"/>
  </g>
  <g class="cls-31">
    <rect class="cls-57" x="119.97" y="203.01" width="7.95" height="6.95" transform="translate(-113.97 169.16) rotate(-50.11)"/>
  </g>
  <g class="cls-30">
    <rect class="cls-47" x="130.65" y="199.79" width="13.33" height="13.39" transform="translate(-109.17 179.42) rotate(-50.11)"/>
  </g>
  <g class="cls-29">
    <rect class="cls-53" x="147.9" y="200.46" width="12.21" height="12.05" transform="translate(-103.19 192.23) rotate(-50.11)"/>
  </g>
  <g class="cls-33">
    <rect class="cls-55" x="175.19" y="200.4" width="12.3" height="12.16" transform="translate(-93.38 213.2) rotate(-50.11)"/>
  </g>
  <g class="cls-35">
    <rect class="cls-56" x="189.96" y="203.01" width="7.95" height="6.95" transform="translate(-88.87 222.86) rotate(-50.11)"/>
  </g>
  <g class="cls-34">
    <rect class="cls-48" x="200.35" y="200.58" width="12.02" height="11.81" transform="translate(-84.41 232.39) rotate(-50.11)"/>
  </g>
  <g class="cls-38">
    <rect class="cls-54" x="215.1" y="200.21" width="12.67" height="12.54" transform="translate(-79.01 243.96) rotate(-50.11)"/>
  </g>
  <g class="cls-36">
    <rect class="cls-50" x="231.89" y="200.46" width="12.21" height="12.05" transform="translate(-73.06 256.67) rotate(-50.11)"/>
  </g>
  <g class="cls-13">
    <rect class="cls-51" x="248.89" y="200.94" width="11.41" height="11.09" transform="translate(-67.11 269.4) rotate(-50.11)"/>
  </g>
  <g class="cls-14">
    <rect class="cls-49" x="264.45" y="200.46" width="12.21" height="12.05" transform="translate(-61.38 281.65) rotate(-50.11)"/>
  </g>
  <g>
    <g class="cls-17">
      <rect class="cls-52" x="119.38" y="-7.63" width="135.71" height="135" transform="translate(21.22 165.13) rotate(-50.11)"/>
    </g>
    <g class="cls-16">
      <rect class="cls-62" x="151.72" y="3.75" width="128.41" height="122.98" transform="translate(27.39 189.07) rotate(-50.11)"/>
    </g>
    <g class="cls-15">
      <rect class="cls-67" x="129.4" y="14.06" width="30" height="30.52" transform="translate(29.29 121.31) rotate(-50.11)"/>
    </g>
    <g class="cls-18">
      <rect class="cls-63" x="171.51" y="64.91" width="1.65" height="1.58" transform="translate(11.4 155.8) rotate(-50.11)"/>
    </g>
    <g class="cls-21">
      <rect class="cls-61" x="207.16" y="123.36" width=".95" height=".85" transform="translate(-20.5 203.71) rotate(-50.11)"/>
    </g>
    <g class="cls-19">
      <rect class="cls-68" x="94.41" y="3.16" width="151.78" height="149.38" transform="translate(1.36 158.59) rotate(-50.11)"/>
    </g>
    <g class="cls-20">
      <rect class="cls-69" x="149.52" y="50.57" width=".83" height=".88" transform="translate(14.63 133.33) rotate(-50.11)"/>
    </g>
    <g class="cls-22">
      <rect class="cls-71" x="127.15" y="33.62" width="21.4" height="23.01" transform="translate(14.82 121.95) rotate(-50.11)"/>
    </g>
    <g class="cls-27">
      <rect class="cls-73" x="116.5" y="38.52" width="21.4" height="23.01" transform="translate(7.24 115.53) rotate(-50.11)"/>
    </g>
    <g class="cls-28">
      <rect class="cls-72" x="169.25" y="110.1" width="22.19" height="23.67" transform="translate(-28.87 182.11) rotate(-50.11)"/>
    </g>
    <g class="cls-26">
      <rect class="cls-70" x="154.95" y="116.3" width="21.4" height="23.01" transform="translate(-38.65 172.94) rotate(-50.11)"/>
    </g>
    <g class="cls-25">
      <rect class="cls-65" x="206.16" y="121.7" width=".07" height=".07" transform="translate(-19.45 201.85) rotate(-50.11)"/>
    </g>
    <g class="cls-23">
      <rect class="cls-64" x="184.35" y="116.3" width="21.4" height="23" transform="translate(-28.1 195.49) rotate(-50.11)"/>
    </g>
    <g class="cls-24">
      <rect class="cls-66" x="169.65" y="121.73" width="21.39" height="23" transform="translate(-37.54 186.16) rotate(-50.11)"/>
    </g>
  </g>
</svg>